# xmcd CD database file
#
# Track frame offsets:
#	150
#	13465
#	24610
#	41100
#	52890
#	73230
#	79477
#	95280
#	112830
#	123250
#	136375
#	148475
#	161850
#	173882
#	190595
#	201390
#
# Disc length: 2815 seconds
#
# Revision: 2
# Processed by: cddbd v1.5.1PL0 Copyright (c) Steve Scherf et al.
# Submitted via: CDex 1.40Release
#
DISCID=ef0afd10
DTITLE=John Lee Hooker - The Blues Collection
DYEAR=1900
DGENRE=Blues
TTITLE0=Don't Look Back
TTITLE1=Boom Boom
TTITLE2=Process
TTITLE3=Wiskey And Winner
TTITLE4=The Migthy Fire
TTITLE5=Talk That Talk
TTITLE6=My First Wife Left Me
TTITLE7=Wednesday Evening Blues
TTITLE8=Maudie
TTITLE9=Birmingham Blues
TTITLE10=Crawlin' Kingsnake
TTITLE11=Time Is Marching
TTITLE12=Love Is A Burning Thing
TTITLE13=Blues Before Sunrise
TTITLE14=I Want To Shout
TTITLE15=I'm Leaving
EXTD=ID3G: 0
EXTT0=
EXTT1=
EXTT2=
EXTT3=
EXTT4=
EXTT5=
EXTT6=
EXTT7=
EXTT8=
EXTT9=
EXTT10=
EXTT11=
EXTT12=
EXTT13=
EXTT14=
EXTT15=
PLAYORDER=
